<?xml version="1.0" ?><svg id="Layer_1" style="enable-background:new 0 0 32 32;" version="1.1" viewBox="0 0 32 32" xml:space="preserve" xmlns="http://www.w3.org/2000/svg" xmlns:xlink="http://www.w3.org/1999/xlink"><style type="text/css">
	.st0{fill:#222A30;}
	.st1{fill:#868687;}
	.st2{fill-rule:evenodd;clip-rule:evenodd;fill:#222A30;stroke:#222A30;stroke-width:0.776;}
	.st3{fill-rule:evenodd;clip-rule:evenodd;fill:#222A30;fill-opacity:0;stroke:#222A30;stroke-width:0.776;}
	.st4{fill:none;stroke:#222A30;stroke-width:1.5556;stroke-opacity:0.5;}
	.st5{fill:none;stroke:#222A30;stroke-width:1.5556;}
	.st6{fill:#070707;}
</style><g id="coffee_x5F_cup"><path class="st0" d="M23,24c0.7,0.3,1.4,0.5,2.1,0.5c2.6,0,4.9-2.3,4.9-4.9c0-2.7-2.1-4.9-4.7-5c0,0,0,0,0,0H4.2   C3,14.6,2,15.5,2,16.6c0,0,0,0.1,0,0.1c0,5.2,3.4,9.6,8.1,11.1h-7c-0.6,0-1.1,0.5-1.1,1.1C2,29.5,2.5,30,3.1,30h23.2   c0.6,0,1.1-0.5,1.1-1.1c0-0.6-0.5-1.1-1.1-1.1h-8.8C19.6,27.2,21.5,25.8,23,24z M25.5,16.8L25.5,16.8c1.6,0.2,2.7,1.8,2.3,3.5   c-0.3,1.2-1.4,2-2.6,2c-0.3,0-0.7,0-1-0.1C25,20.5,25.5,18.7,25.5,16.8z"/><path class="st0" d="M9.4,10.1c-1.5,0.5-0.8,2.8,0.6,2.3c1.7-0.6,2.3-2.3,1.9-4c-0.2-0.8-0.7-1.6-1.1-2.4c-0.2-0.4-0.7-1.4-0.1-1.8   c1.3-0.8,0.1-2.9-1.2-2.1C8.1,3.1,7.8,4.8,8.3,6.3C8.5,6.8,10.5,9.8,9.4,10.1z"/><path class="st0" d="M16,11c-1.5,0.5-0.8,2.8,0.6,2.3c1.7-0.6,2.3-2.3,1.9-4c-0.2-0.8-0.7-1.6-1.1-2.4c-0.2-0.4-0.7-1.4-0.1-1.8   c1.3-0.8,0.1-2.9-1.2-2.1c-1.4,0.9-1.7,2.6-1.2,4.1C15.1,7.7,17.1,10.6,16,11z"/></g></svg>