<?xml version="1.0" ?><svg height="24" id="svg8" version="1.1" viewBox="0 0 24 24" width="24" xmlns="http://www.w3.org/2000/svg" xmlns:cc="http://creativecommons.org/ns#" xmlns:dc="http://purl.org/dc/elements/1.1/" xmlns:rdf="http://www.w3.org/1999/02/22-rdf-syntax-ns#" xmlns:svg="http://www.w3.org/2000/svg"><defs id="defs2"><rect height="7.0346723" id="rect2504" width="7.9207187" x="-1.1008456" y="289.81766"/></defs><g id="g2111" style="stroke-width:0.956082" transform="matrix(1.0459139,0,0,1.045958,-0.55096701,-0.54875527)"><path d="m -67.951172,-26.626953 c -1.504935,0 -2.734374,1.230724 -2.734375,2.736328 0,0.837434 0.387563,1.580795 0.984375,2.083984 -0.787148,0.31867 -1.468286,0.845415 -1.978516,1.517579 -0.212196,-0.169546 -0.439246,-0.317708 -0.683593,-0.433594 0.356628,-0.37021 0.580078,-0.864892 0.580078,-1.414063 0,-1.141817 -0.952071,-2.068359 -2.101563,-2.068359 -1.149491,0 -2.105468,0.926542 -2.105468,2.068359 0,0.552112 0.227394,1.049121 0.58789,1.419922 -1.017818,0.483582 -1.779429,1.427053 -1.951172,2.589844 l -0.08594,0.574219 H -58.4668 l -0.08398,-0.574219 c -0.17167,-1.162299 -0.932002,-2.106071 -1.949219,-2.589844 0.359489,-0.370712 0.585938,-0.868258 0.585938,-1.419922 0,-1.141817 -0.954024,-2.068359 -2.103516,-2.068359 -1.149492,0 -2.103516,0.926542 -2.103516,2.068359 0,0.548723 0.223473,1.043945 0.580078,1.414063 -0.244991,0.116116 -0.472861,0.2636 -0.685546,0.433594 -0.509827,-0.67107 -1.188597,-1.199013 -1.97461,-1.517579 0.596812,-0.503189 0.986329,-1.24655 0.986328,-2.083984 0,-1.505604 -1.231393,-2.736329 -2.736329,-2.736328 z m 0,0.998047 c 0.964035,0 1.734375,0.772657 1.734375,1.738281 0,0.965625 -0.77034,1.736328 -1.734375,1.736328 -0.964034,-1e-6 -1.736328,-0.770703 -1.736328,-1.736328 0,-0.965624 0.772294,-1.738281 1.736328,-1.738281 z m -5.933594,2.425781 c 0.621385,0 1.103516,0.47765 1.103516,1.066406 0,0.588757 -0.482131,1.066406 -1.103516,1.066407 -0.621384,0 -1.103515,-0.477651 -1.103515,-1.066407 0,-0.588755 0.482131,-1.066406 1.103515,-1.066406 z m 11.867188,0 c 0.621385,0 1.103516,0.477651 1.103516,1.066406 0,0.588756 -0.482131,1.066406 -1.103516,1.066407 -0.621385,0 -1.101563,-0.47765 -1.101563,-1.066407 0,-0.588756 0.480178,-1.066406 1.101563,-1.066406 z m -5.933594,2.050781 c 1.60498,5.56e-4 2.838499,1.118265 3.337891,2.591797 h -6.677735 c 0.499908,-1.473702 1.734435,-2.592138 3.339844,-2.591797 z m -5.933594,1.082032 c 0.634809,2.14e-4 1.230736,0.245769 1.689454,0.658203 -0.12543,0.272558 -0.222877,0.558321 -0.294922,0.857421 h -3.554688 c 0.393383,-0.8554 1.146509,-1.515835 2.160156,-1.515624 z m 11.867188,0 c 1.01296,3.42e-4 1.764931,0.660864 2.158203,1.515624 h -3.554687 c -0.07202,-0.29898 -0.169549,-0.584955 -0.294922,-0.857421 0.459214,-0.412579 1.056314,-0.658335 1.691406,-0.658203 z" id="path1315" style="color:#000000;font-style:normal;font-variant:normal;font-weight:normal;font-stretch:normal;font-size:medium;line-height:normal;font-family:sans-serif;font-variant-ligatures:normal;font-variant-position:normal;font-variant-caps:normal;font-variant-numeric:normal;font-variant-alternates:normal;font-variant-east-asian:normal;font-feature-settings:normal;font-variation-settings:normal;text-indent:0;text-align:start;text-decoration:none;text-decoration-line:none;text-decoration-style:solid;text-decoration-color:#000000;letter-spacing:normal;word-spacing:normal;text-transform:none;writing-mode:lr-tb;direction:ltr;text-orientation:mixed;dominant-baseline:auto;baseline-shift:baseline;text-anchor:start;white-space:normal;shape-padding:0;shape-margin:0;inline-size:0;clip-rule:nonzero;display:inline;overflow:visible;visibility:visible;opacity:1;isolation:auto;mix-blend-mode:normal;color-interpolation:sRGB;color-interpolation-filters:linearRGB;solid-color:#000000;solid-opacity:1;vector-effect:none;fill:#000000;fill-opacity:1;fill-rule:nonzero;stroke:none;stroke-width:1;stroke-linecap:butt;stroke-linejoin:miter;stroke-miterlimit:4;stroke-dasharray:none;stroke-dashoffset:0;stroke-opacity:1;paint-order:stroke fill markers;color-rendering:auto;image-rendering:auto;shape-rendering:auto;text-rendering:auto;enable-background:accumulate;stop-color:#000000;stop-opacity:1" transform="matrix(0.95610164,0,0,0.95606133,77.014912,38.766484)"/><path d="m 1.8339844,2.0097656 c 0,2.5332031 0,5.0664063 0,7.5996094 2.6692708,0 5.3385417,0 8.0078125,0 0.7174481,0.875 1.4348961,1.75 2.1523441,2.625 0.742838,-0.875 1.485677,-1.75 2.228515,-2.625 2.647787,0 5.295573,0 7.94336,0 0,-2.5332031 0,-5.0664063 0,-7.5996094 -6.777344,0 -13.5546877,0 -20.3320316,0 z m 0.9570312,0.9550782 c 6.1393228,0 12.2786454,0 18.4179684,0 0,1.8964844 0,3.7929687 0,5.6894531 -2.475911,0 -4.951823,0 -7.427734,0 -0.591797,0.6959637 -1.183594,1.3919271 -1.775391,2.0878911 -0.570312,-0.695964 -1.140625,-1.3919274 -1.710937,-2.0878911 -2.5013021,0 -5.0026043,0 -7.5039064,0 0,-1.8964844 0,-3.7929687 0,-5.6894531 z" id="path1943" style="color:#000000;font-style:normal;font-variant:normal;font-weight:normal;font-stretch:normal;font-size:medium;line-height:normal;font-family:sans-serif;font-variant-ligatures:normal;font-variant-position:normal;font-variant-caps:normal;font-variant-numeric:normal;font-variant-alternates:normal;font-variant-east-asian:normal;font-feature-settings:normal;font-variation-settings:normal;text-indent:0;text-align:start;text-decoration:none;text-decoration-line:none;text-decoration-style:solid;text-decoration-color:#000000;letter-spacing:normal;word-spacing:normal;text-transform:none;writing-mode:lr-tb;direction:ltr;text-orientation:mixed;dominant-baseline:auto;baseline-shift:baseline;text-anchor:start;white-space:normal;shape-padding:0;shape-margin:0;inline-size:0;clip-rule:nonzero;display:inline;overflow:visible;visibility:visible;opacity:1;isolation:auto;mix-blend-mode:normal;color-interpolation:sRGB;color-interpolation-filters:linearRGB;solid-color:#000000;solid-opacity:1;vector-effect:none;fill:#000000;fill-opacity:1;fill-rule:nonzero;stroke:none;stroke-width:0.956082;stroke-linecap:butt;stroke-linejoin:miter;stroke-miterlimit:4;stroke-dasharray:none;stroke-dashoffset:0;stroke-opacity:1;paint-order:stroke fill markers;color-rendering:auto;image-rendering:auto;shape-rendering:auto;text-rendering:auto;enable-background:accumulate;stop-color:#000000;stop-opacity:1"/><path d="m 5.0298006,4.2665736 c 0,0.3411458 0,0.6822917 0,1.0234375 4.6467996,0 9.2935994,0 13.9403994,0 0,-0.3411458 0,-0.6822917 0,-1.0234375 -4.6468,0 -9.2935998,0 -13.9403994,0 z" id="path1947" style="color:#000000;font-style:normal;font-variant:normal;font-weight:normal;font-stretch:normal;font-size:medium;line-height:normal;font-family:sans-serif;font-variant-ligatures:normal;font-variant-position:normal;font-variant-caps:normal;font-variant-numeric:normal;font-variant-alternates:normal;font-variant-east-asian:normal;font-feature-settings:normal;font-variation-settings:normal;text-indent:0;text-align:start;text-decoration:none;text-decoration-line:none;text-decoration-style:solid;text-decoration-color:#000000;letter-spacing:normal;word-spacing:normal;text-transform:none;writing-mode:lr-tb;direction:ltr;text-orientation:mixed;dominant-baseline:auto;baseline-shift:baseline;text-anchor:start;white-space:normal;shape-padding:0;shape-margin:0;inline-size:0;clip-rule:nonzero;display:inline;overflow:visible;visibility:visible;isolation:auto;mix-blend-mode:normal;color-interpolation:sRGB;color-interpolation-filters:linearRGB;solid-color:#000000;solid-opacity:1;vector-effect:none;fill:#000000;fill-opacity:1;fill-rule:nonzero;stroke:none;stroke-width:0.956085px;stroke-linecap:square;stroke-linejoin:miter;stroke-miterlimit:4;stroke-dasharray:none;stroke-dashoffset:0;stroke-opacity:1;color-rendering:auto;image-rendering:auto;shape-rendering:auto;text-rendering:auto;enable-background:accumulate;stop-color:#000000"/><path d="m 5.0298006,6.2607142 c 0,0.3417969 0,0.6835937 0,1.0253906 3.414299,0 6.8285984,0 10.2428964,0 0,-0.3417969 0,-0.6835937 0,-1.0253906 -3.414298,0 -6.8285974,0 -10.2428964,0 z" id="path1951" style="color:#000000;font-style:normal;font-variant:normal;font-weight:normal;font-stretch:normal;font-size:medium;line-height:normal;font-family:sans-serif;font-variant-ligatures:normal;font-variant-position:normal;font-variant-caps:normal;font-variant-numeric:normal;font-variant-alternates:normal;font-variant-east-asian:normal;font-feature-settings:normal;font-variation-settings:normal;text-indent:0;text-align:start;text-decoration:none;text-decoration-line:none;text-decoration-style:solid;text-decoration-color:#000000;letter-spacing:normal;word-spacing:normal;text-transform:none;writing-mode:lr-tb;direction:ltr;text-orientation:mixed;dominant-baseline:auto;baseline-shift:baseline;text-anchor:start;white-space:normal;shape-padding:0;shape-margin:0;inline-size:0;clip-rule:nonzero;display:inline;overflow:visible;visibility:visible;isolation:auto;mix-blend-mode:normal;color-interpolation:sRGB;color-interpolation-filters:linearRGB;solid-color:#000000;solid-opacity:1;vector-effect:none;fill:#000000;fill-opacity:1;fill-rule:nonzero;stroke:none;stroke-width:0.956085px;stroke-linecap:square;stroke-linejoin:miter;stroke-miterlimit:4;stroke-dasharray:none;stroke-dashoffset:0;stroke-opacity:1;color-rendering:auto;image-rendering:auto;shape-rendering:auto;text-rendering:auto;enable-background:accumulate;stop-color:#000000"/></g></svg>