<?xml version="1.0" ?><svg fill="none" height="24" viewBox="0 0 24 24" width="24" xmlns="http://www.w3.org/2000/svg"><path clip-rule="evenodd" d="M17 15.25C16.5858 15.25 16.25 15.5858 16.25 16C16.25 16.4142 16.5858 16.75 17 16.75C17.4142 16.75 17.75 16.4142 17.75 16C17.75 15.5858 17.4142 15.25 17 15.25ZM14.75 16C14.75 14.7574 15.7574 13.75 17 13.75C18.2426 13.75 19.25 14.7574 19.25 16C19.25 17.2426 18.2426 18.25 17 18.25C15.7574 18.25 14.75 17.2426 14.75 16Z" fill="black" fill-rule="evenodd"/><path clip-rule="evenodd" d="M7 5.25C6.58579 5.25 6.25 5.58579 6.25 6C6.25 6.41421 6.58579 6.75 7 6.75C7.41421 6.75 7.75 6.41421 7.75 6C7.75 5.58579 7.41421 5.25 7 5.25ZM4.75 6C4.75 4.75736 5.75736 3.75 7 3.75C8.24264 3.75 9.25 4.75736 9.25 6C9.25 7.24264 8.24264 8.25 7 8.25C5.75736 8.25 4.75 7.24264 4.75 6Z" fill="black" fill-rule="evenodd"/><path clip-rule="evenodd" d="M17.0003 18.25C15.5979 18.25 14.4011 19.1387 13.946 20.3861C13.804 20.7752 13.3735 20.9756 12.9844 20.8336C12.5952 20.6917 12.3949 20.2611 12.5368 19.872C13.201 18.0516 14.9477 16.75 17.0003 16.75C19.0529 16.75 20.7996 18.0516 21.4638 19.872C21.6057 20.2611 21.4053 20.6917 21.0162 20.8336C20.6271 20.9756 20.1966 20.7752 20.0546 20.3861C19.5995 19.1387 18.4027 18.25 17.0003 18.25Z" fill="black" fill-rule="evenodd"/><path clip-rule="evenodd" d="M7.00044 8.25C5.61706 8.25 4.43375 9.11464 3.96503 10.3356C3.81658 10.7223 3.38276 10.9155 2.99606 10.767C2.60936 10.6186 2.41622 10.1847 2.56467 9.79804C3.24856 8.01658 4.97566 6.75 7.00044 6.75C9.13526 6.75 10.9393 8.15776 11.5386 10.0938C11.6611 10.4895 11.4397 10.9096 11.044 11.032C10.6483 11.1545 10.2282 10.9331 10.1057 10.5374C9.69533 9.21165 8.45921 8.25 7.00044 8.25Z" fill="black" fill-rule="evenodd"/><path clip-rule="evenodd" d="M17 12.75C14.6528 12.75 12.75 14.6528 12.75 17C12.75 19.3472 14.6528 21.25 17 21.25C19.3472 21.25 21.25 19.3472 21.25 17C21.25 16.5858 21.5858 16.25 22 16.25C22.4142 16.25 22.75 16.5858 22.75 17C22.75 20.1756 20.1756 22.75 17 22.75C13.8244 22.75 11.25 20.1756 11.25 17C11.25 13.8244 13.8244 11.25 17 11.25C18.2938 11.25 19.4898 11.6782 20.451 12.4004C20.7822 12.6492 20.8489 13.1193 20.6001 13.4505C20.3513 13.7817 19.8811 13.8484 19.55 13.5996C18.8397 13.0659 17.9578 12.75 17 12.75Z" fill="black" fill-rule="evenodd"/><path clip-rule="evenodd" d="M7 2.75C4.65279 2.75 2.75 4.65279 2.75 7C2.75 9.34721 4.65279 11.25 7 11.25C9.34721 11.25 11.25 9.34721 11.25 7C11.25 4.65279 9.34721 2.75 7 2.75ZM1.25 7C1.25 3.82436 3.82436 1.25 7 1.25C10.1756 1.25 12.75 3.82436 12.75 7C12.75 10.1756 10.1756 12.75 7 12.75C3.82436 12.75 1.25 10.1756 1.25 7Z" fill="black" fill-rule="evenodd"/><path clip-rule="evenodd" d="M6 15.75C5.30964 15.75 4.75 16.3096 4.75 17C4.75 17.6904 5.30964 18.25 6 18.25C6.69036 18.25 7.25 17.6904 7.25 17C7.25 16.3096 6.69036 15.75 6 15.75ZM3.25 17C3.25 15.4812 4.48122 14.25 6 14.25C7.51878 14.25 8.75 15.4812 8.75 17C8.75 18.5188 7.51878 19.75 6 19.75C4.48122 19.75 3.25 18.5188 3.25 17Z" fill="black" fill-rule="evenodd"/><path clip-rule="evenodd" d="M18 5.75C18.6904 5.75 19.25 6.30964 19.25 7C19.25 7.69036 18.6904 8.25 18 8.25C17.3096 8.25 16.75 7.69036 16.75 7C16.75 6.30964 17.3096 5.75 18 5.75ZM20.75 7C20.75 5.48122 19.5188 4.25 18 4.25C16.4812 4.25 15.25 5.48122 15.25 7C15.25 8.51878 16.4812 9.75 18 9.75C19.5188 9.75 20.75 8.51878 20.75 7Z" fill="black" fill-rule="evenodd"/><path clip-rule="evenodd" d="M7.25 17C7.25 16.5858 7.58579 16.25 8 16.25H12C12.4142 16.25 12.75 16.5858 12.75 17C12.75 17.4142 12.4142 17.75 12 17.75H8C7.58579 17.75 7.25 17.4142 7.25 17Z" fill="black" fill-rule="evenodd"/><path clip-rule="evenodd" d="M16.75 7C16.75 6.58579 16.4142 6.25 16 6.25H12C11.5858 6.25 11.25 6.58579 11.25 7C11.25 7.41421 11.5858 7.75 12 7.75H16C16.4142 7.75 16.75 7.41421 16.75 7Z" fill="black" fill-rule="evenodd"/><path clip-rule="evenodd" d="M9.96967 9.96967C10.2626 9.67678 10.7374 9.67678 11.0303 9.96967L13.8685 12.8079C14.1614 13.1008 14.1614 13.5756 13.8685 13.8685C13.5756 14.1614 13.1008 14.1614 12.8079 13.8685L9.96967 11.0303C9.67678 10.7374 9.67678 10.2626 9.96967 9.96967Z" fill="black" fill-rule="evenodd"/></svg>