<?xml version="1.0" ?><svg id="Layer_1_1_" style="enable-background:new 0 0 96 96;" version="1.1" viewBox="0 0 96 96" xml:space="preserve" xmlns="http://www.w3.org/2000/svg" xmlns:xlink="http://www.w3.org/1999/xlink"><path d="M46.978,63.182c0.037,0.268,0.062,0.54,0.062,0.818v1c0,0.701-0.124,1.374-0.346,2h5.416c0.55,0,0.89-0.44,0.89-0.89  c0-0.28-0.13-0.55-0.4-0.73C50.902,64.243,48.98,63.499,46.978,63.182z"/><path d="M42.251,61.207l1.463-1.493l-1.428-1.4l-1.265,1.291L41,58l-2,0.027l0.015,1.115l-1.465-0.964l-1.1,1.67l2.165,1.425  C37.112,61.848,36.04,63.294,36.04,65c0,2.608,1.188,3.158-0.259,5.328L34,72H19.354c-0.355-0.842-0.809-1.626-1.385-2.331  c-2.478-3.025-6.795-4.337-11.004-3.339l0.461,1.945c3.47-0.822,7,0.223,8.994,2.659c0.271,0.332,0.5,0.693,0.709,1.066h-1.635  c-0.93-0.404-2.029-0.689-3.306-0.698c-2.793,0.02-4.749,1.425-5.667,2.261l1.348,1.479c0.705-0.644,2.207-1.725,4.33-1.739  c1.395,0,2.537,0.463,3.406,1.014l0.029,0.112c-0.485-0.092-0.969-0.137-1.446-0.126c-3.346,0.022-6.451,2.222-7.911,5.604  l1.836,0.793c1.146-2.654,3.536-4.38,6.093-4.396c0.675,0.003,1.344,0.119,2.014,0.359l0.538,2.053  c0.998,3.245,3.495,5.717,6.59,6.752l-1.277,4.362c-0.168,0.42-0.033,0.899,0.329,1.171l4,3l1.199-1.6l-3.387-2.54l1.108-3.951  c0.428,0.054,0.861,0.09,1.301,0.09h0c0.44,0,0.873-0.034,1.302-0.084l-0.853,2.913c-0.168,0.42-0.033,0.899,0.329,1.171l4,3  l1.199-1.6l-3.387-2.54l0.964-3.436c3.41-1.135,6.156-3.867,7.231-7.449L38,76l3.04-6c2.209,0,4-1.791,4-4v-1  C45.04,63.216,43.864,61.722,42.251,61.207z M22.375,77.781c-0.331-0.266-0.459-0.712-0.318-1.112S22.575,76,23,76h6v2h-3.149  l2.774,2.219l-1.25,1.562L22.375,77.781z M42,66h-2v-2h2V66z"/><path d="M87.609,65.396c0.439,0.44,0.857,0.913,1.24,1.405l1.578-1.229c-0.434-0.558-0.906-1.093-1.404-1.591L87.609,65.396z"/><path d="M89.904,68.347c0.317,0.534,0.604,1.095,0.854,1.666l1.832-0.801c-0.282-0.647-0.608-1.282-0.968-1.887L89.904,68.347z"/><path d="M86.616,87.513l1.285,1.533c0.542-0.454,1.06-0.945,1.539-1.46l-1.463-1.363C87.554,86.677,87.097,87.111,86.616,87.513z"/><path d="M83.474,89.536l0.865,1.803c0.637-0.306,1.26-0.653,1.852-1.034l-1.082-1.682C84.586,88.959,84.036,89.266,83.474,89.536z"/><path d="M93.783,73.28c-0.113-0.698-0.271-1.395-0.468-2.069l-1.92,0.562c0.175,0.595,0.313,1.209,0.413,1.827L93.783,73.28z"/><path d="M90.962,81.493l1.861,0.732c0.26-0.66,0.479-1.341,0.652-2.021l-1.938-0.494C91.385,80.311,91.191,80.911,90.962,81.493z"/><path d="M60.096,74.185l1.988,0.211c0.066-0.621,0.172-1.242,0.314-1.846l-1.947-0.459C60.29,72.775,60.171,73.479,60.096,74.185z"/><path d="M62.531,79.97l-1.93,0.527c0.186,0.68,0.417,1.356,0.688,2.01l1.848-0.766C62.898,81.165,62.694,80.569,62.531,79.97z"/><path d="M89.168,84.773l1.619,1.174c0.412-0.569,0.794-1.174,1.135-1.796l-1.754-0.961C89.867,83.74,89.53,84.272,89.168,84.773z"/><path d="M73.812,61.34c0.605-0.132,1.229-0.226,1.852-0.281l-0.178-1.992c-0.705,0.062-1.411,0.17-2.098,0.318L73.812,61.34z"/><path d="M65.842,65.975l-1.486-1.338c-0.473,0.525-0.917,1.086-1.319,1.664l1.643,1.143C65.033,66.933,65.425,66.438,65.842,65.975z  "/><path d="M62.004,76.271l-2,0.031c0.012,0.704,0.067,1.416,0.167,2.115l1.98-0.281C62.063,77.52,62.014,76.892,62.004,76.271z"/><path d="M67.178,64.661c0.473-0.409,0.974-0.792,1.489-1.137l-1.111-1.662c-0.584,0.391-1.152,0.823-1.687,1.287L67.178,64.661z"/><path d="M77.036,91c-0.273,0.009-0.563-0.007-0.842-0.021l-0.104,1.998c0.315,0.017,0.637,0.035,0.947,0.023  c0.394,0,0.785-0.015,1.172-0.041l-0.139-1.995C77.729,90.987,77.385,91,77.036,91z"/><path d="M63.961,83.42l-1.736,0.994c0.352,0.613,0.743,1.209,1.164,1.772l1.602-1.199C64.617,84.49,64.271,83.963,63.961,83.42z"/><path d="M79.4,61.19l0.318-1.975c-0.695-0.111-1.405-0.181-2.111-0.205l-0.07,1.998C78.161,61.031,78.788,61.092,79.4,61.19z"/><path d="M64.763,87.802c0.493,0.511,1.021,0.993,1.566,1.434l1.256-1.557c-0.482-0.389-0.947-0.814-1.383-1.266L64.763,87.802z"/><path d="M68.062,90.463c0.601,0.373,1.231,0.71,1.873,1.004l0.832-1.818c-0.566-0.259-1.121-0.557-1.65-0.885L68.062,90.463z"/><path d="M70.286,62.583c0.558-0.28,1.138-0.526,1.723-0.732l-0.664-1.887c-0.664,0.234-1.321,0.514-1.955,0.83L70.286,62.583z"/><path d="M71.918,92.228c0.675,0.211,1.369,0.381,2.063,0.505l0.352-1.969c-0.612-0.109-1.224-0.259-1.817-0.444L71.918,92.228z"/><path d="M82.989,62.243l0.799-1.834c-0.65-0.283-1.323-0.527-1.998-0.725l-0.561,1.92C81.823,61.778,82.415,61.993,82.989,62.243z"/><path d="M79.929,90.714l0.387,1.963c0.691-0.137,1.383-0.319,2.054-0.542l-0.631-1.898C81.146,90.434,80.538,90.594,79.929,90.714z"/><path d="M91.991,75.466C91.997,75.644,92,75.821,92,76c0,0.625-0.039,1.255-0.115,1.871l1.984,0.246C93.956,77.42,94,76.707,94,76  c0-0.202-0.003-0.405-0.011-0.606L91.991,75.466z"/><path d="M63.706,69.046l-1.771-0.93c-0.327,0.624-0.619,1.277-0.866,1.94l1.873,0.699C63.16,70.171,63.417,69.596,63.706,69.046z"/><path d="M84.656,63.099c0.531,0.315,1.053,0.672,1.55,1.058l1.227-1.58c-0.562-0.437-1.152-0.839-1.753-1.196L84.656,63.099z"/><path d="M85.809,69.752c-1.589-1.795-4.164-1.795-5.753,0l-2.876,3.25l-3.236-3.656c-1.589-1.795-4.164-1.795-5.753,0  c-1.589,1.795-1.589,4.704,0,6.499L68.328,76h3.257l1.707-1.707c0.218-0.217,0.527-0.321,0.829-0.285  c0.306,0.037,0.577,0.214,0.735,0.478l2.341,3.902l3.095-3.095C80.48,75.105,80.734,75,81,75h5.577  C87.312,73.288,87.067,71.174,85.809,69.752z"/><path d="M85.146,77h-3.732l-3.707,3.707C77.519,80.896,77.264,81,77,81c-0.041,0-0.081-0.003-0.122-0.008  c-0.306-0.037-0.577-0.214-0.735-0.478l-2.341-3.902l-1.095,1.095C72.52,77.895,72.266,78,72,78h-1.901l7.081,8L85.146,77z"/><path d="M71,44h4v14l0.337,0.084C75.885,58.034,76.439,58,77,58c3.647,0,7.039,1.098,9.878,2.969L87,61V44h4L81,32L71,44z"/><path d="M82,2c-6.627,0-12,5.373-12,12c0,6.627,5.373,12,12,12s12-5.373,12-12C94,7.373,88.627,2,82,2z M75,13h-2  c0-2.206,1.794-4,4-4s4,1.794,4,4h-2c0-1.103-0.897-2-2-2S75,11.897,75,13z M82,21c-2.206,0-4-1.794-4-4h2c0,1.103,0.897,2,2,2  s2-0.897,2-2h2C86,19.206,84.206,21,82,21z M89,13c0-1.103-0.897-2-2-2s-2,0.897-2,2h-2c0-2.206,1.794-4,4-4s4,1.794,4,4H89z"/><polygon points="8.11,30.4 16.91,40.36 20.19,37.55 12.79,29.17 "/><path d="M22,36l-7,6l8,9l1.565-1.342l7.146,8.101l2.65-3.53l-6.517-7.381L30,45L22,36z M22.919,45.664l-2.667-3l1.495-1.328l2.667,3  L22.919,45.664z"/><path d="M24.194,4.71c-1.409,2.114-1.961,4.685-1.543,7.191l0.054,0.322l2.264,0.679l2.376-0.792  c0.749-0.259,1.521-0.41,2.297-0.469l-0.712-0.713C27.054,9.054,26,6.51,26,3.858V2L24.194,4.71z"/><path d="M18.762,67.94c0.517,0.634,0.943,1.327,1.299,2.06h5.137L27,67.329l4.023-7.241l-6.707-7.601l-0.382,0.328  c-0.377,0.323-0.84,0.481-1.301,0.481c-0.552,0-1.101-0.228-1.496-0.671l-8-9c-0.357-0.401-0.537-0.929-0.501-1.465  c0.037-0.535,0.287-1.033,0.694-1.383l0.391-0.336L5.615,31l-3.509,0.329L2,44.329V64l4.753,0.261  C11.326,63.177,16.043,64.62,18.762,67.94z"/><path d="M66,41.579c0-1.581-0.893-3.026-2.307-3.732c-6.368-3.184-11.87-7.861-16.038-13.632c-3.842-5.32-9.489-9.022-15.846-10.445  C30.545,13.487,29.224,13.575,28,14l-3,1l-4.204-1.261c-3.772-1.132-7.801-1.071-11.537,0.175L3,16l5.034,3.204  C11.884,21.653,16.483,22.645,21,22c-0.71,2.13-2.105,3.995-4.026,5.157c-0.752,0.455-1.53,0.863-2.324,1.234l5.391,6.306  l0.289-0.248c0.83-0.711,2.074-0.624,2.796,0.189l8,9c0.357,0.401,0.537,0.929,0.501,1.465c-0.037,0.535-0.287,1.033-0.694,1.383  l-0.301,0.258l5.451,6.174L37,52c3.808-3.808,9.09-5.762,14.46-5.349l2.002,0.154c1.684,0.13,3.377,0.027,5.033-0.304l4.15-0.83  C64.596,45.281,66,43.568,66,41.579z M22.684,18.948l-2.137-0.712C18.087,17.416,15.523,17,12.928,17H12v-2h0.928  c2.811,0,5.587,0.45,8.251,1.34l2.137,0.712L22.684,18.948z M42.51,24.705c-0.479-0.269-1.005-0.47-1.552-0.614  C40.985,24.223,41,24.36,41,24.5c0,1.105-0.895,2-2,2s-2-0.895-2-2c0-0.14,0.015-0.277,0.043-0.409  c-0.547,0.144-1.073,0.345-1.552,0.614l-0.98-1.744c2.686-1.51,6.295-1.51,8.98,0L42.51,24.705z M62,40h-3v-2h3V40z"/></svg>